<mxfile host="65bd71144e">
    <diagram name="OBIS-datastructure" id="WIOOF-Vvk7kjg27J6qeT">
        <mxGraphModel dx="3643" dy="1879" grid="1" gridSize="10" guides="1" tooltips="1" connect="1" arrows="1" fold="1" page="1" pageScale="1" pageWidth="1100" pageHeight="850" math="0" shadow="0">
            <root>
                <mxCell id="hc1PMB7uW3_f1QSLA8F5-0"/>
                <mxCell id="hc1PMB7uW3_f1QSLA8F5-1" parent="hc1PMB7uW3_f1QSLA8F5-0"/>
                <mxCell id="hc1PMB7uW3_f1QSLA8F5-2" value="" style="edgeStyle=orthogonalEdgeStyle;rounded=0;orthogonalLoop=1;jettySize=auto;html=1;fontSize=15;" parent="hc1PMB7uW3_f1QSLA8F5-1" source="hc1PMB7uW3_f1QSLA8F5-9" target="hc1PMB7uW3_f1QSLA8F5-10" edge="1">
                    <mxGeometry relative="1" as="geometry"/>
                </mxCell>
                <mxCell id="hc1PMB7uW3_f1QSLA8F5-3" value="" style="edgeStyle=orthogonalEdgeStyle;rounded=0;orthogonalLoop=1;jettySize=auto;html=1;fontSize=15;" parent="hc1PMB7uW3_f1QSLA8F5-1" source="hc1PMB7uW3_f1QSLA8F5-9" target="hc1PMB7uW3_f1QSLA8F5-12" edge="1">
                    <mxGeometry relative="1" as="geometry"/>
                </mxCell>
                <mxCell id="hc1PMB7uW3_f1QSLA8F5-4" value="" style="edgeStyle=orthogonalEdgeStyle;rounded=0;orthogonalLoop=1;jettySize=auto;html=1;fontSize=15;" parent="hc1PMB7uW3_f1QSLA8F5-1" source="hc1PMB7uW3_f1QSLA8F5-9" target="hc1PMB7uW3_f1QSLA8F5-12" edge="1">
                    <mxGeometry relative="1" as="geometry"/>
                </mxCell>
                <mxCell id="hc1PMB7uW3_f1QSLA8F5-5" style="edgeStyle=orthogonalEdgeStyle;rounded=0;orthogonalLoop=1;jettySize=auto;html=1;fontSize=15;" parent="hc1PMB7uW3_f1QSLA8F5-1" source="hc1PMB7uW3_f1QSLA8F5-9" target="hc1PMB7uW3_f1QSLA8F5-24" edge="1">
                    <mxGeometry relative="1" as="geometry"/>
                </mxCell>
                <mxCell id="hc1PMB7uW3_f1QSLA8F5-6" style="edgeStyle=orthogonalEdgeStyle;rounded=0;orthogonalLoop=1;jettySize=auto;html=1;fontSize=15;" parent="hc1PMB7uW3_f1QSLA8F5-1" source="hc1PMB7uW3_f1QSLA8F5-9" target="hc1PMB7uW3_f1QSLA8F5-15" edge="1">
                    <mxGeometry relative="1" as="geometry"/>
                </mxCell>
                <mxCell id="hc1PMB7uW3_f1QSLA8F5-7" style="edgeStyle=orthogonalEdgeStyle;rounded=0;orthogonalLoop=1;jettySize=auto;html=1;fontSize=15;" parent="hc1PMB7uW3_f1QSLA8F5-1" source="hc1PMB7uW3_f1QSLA8F5-9" target="hc1PMB7uW3_f1QSLA8F5-19" edge="1">
                    <mxGeometry relative="1" as="geometry"/>
                </mxCell>
                <mxCell id="hc1PMB7uW3_f1QSLA8F5-8" style="edgeStyle=orthogonalEdgeStyle;rounded=0;orthogonalLoop=1;jettySize=auto;html=1;fontSize=15;" parent="hc1PMB7uW3_f1QSLA8F5-1" source="hc1PMB7uW3_f1QSLA8F5-9" target="hc1PMB7uW3_f1QSLA8F5-17" edge="1">
                    <mxGeometry relative="1" as="geometry"/>
                </mxCell>
                <mxCell id="hc1PMB7uW3_f1QSLA8F5-9" value="What kind of data do&amp;nbsp; you have, or will collect?" style="rounded=0;whiteSpace=wrap;html=1;shadow=0;fillColor=#CCE5FF;fontStyle=1;fontSize=15;" parent="hc1PMB7uW3_f1QSLA8F5-1" vertex="1">
                    <mxGeometry x="-440" y="-700" width="150" height="70" as="geometry"/>
                </mxCell>
                <mxCell id="hc1PMB7uW3_f1QSLA8F5-10" value="occurrence" style="rounded=1;whiteSpace=wrap;html=1;fillColor=#E6E6E6;fontSize=15;" parent="hc1PMB7uW3_f1QSLA8F5-1" vertex="1">
                    <mxGeometry x="-780" y="-550" width="120" height="60" as="geometry"/>
                </mxCell>
                <mxCell id="hc1PMB7uW3_f1QSLA8F5-11" value="" style="edgeStyle=orthogonalEdgeStyle;rounded=0;orthogonalLoop=1;jettySize=auto;html=1;entryX=0.5;entryY=0;entryDx=0;entryDy=0;entryPerimeter=0;fontSize=15;" parent="hc1PMB7uW3_f1QSLA8F5-1" source="hc1PMB7uW3_f1QSLA8F5-12" target="hc1PMB7uW3_f1QSLA8F5-57" edge="1">
                    <mxGeometry relative="1" as="geometry">
                        <mxPoint x="81" y="-280" as="targetPoint"/>
                    </mxGeometry>
                </mxCell>
                <mxCell id="hc1PMB7uW3_f1QSLA8F5-12" value="genetic" style="whiteSpace=wrap;html=1;rounded=1;fillColor=#E6E6E6;fontSize=15;" parent="hc1PMB7uW3_f1QSLA8F5-1" vertex="1">
                    <mxGeometry x="-91.5" y="-550" width="120" height="60" as="geometry"/>
                </mxCell>
                <mxCell id="hc1PMB7uW3_f1QSLA8F5-13" style="edgeStyle=orthogonalEdgeStyle;rounded=0;orthogonalLoop=1;jettySize=auto;html=1;exitX=0.5;exitY=1;exitDx=0;exitDy=0;fontSize=15;" parent="hc1PMB7uW3_f1QSLA8F5-1" source="hc1PMB7uW3_f1QSLA8F5-24" target="hc1PMB7uW3_f1QSLA8F5-22" edge="1">
                    <mxGeometry relative="1" as="geometry"/>
                </mxCell>
                <mxCell id="hc1PMB7uW3_f1QSLA8F5-14" style="edgeStyle=orthogonalEdgeStyle;rounded=0;orthogonalLoop=1;jettySize=auto;html=1;entryX=0.5;entryY=0;entryDx=0;entryDy=0;fontSize=15;" parent="hc1PMB7uW3_f1QSLA8F5-1" source="hc1PMB7uW3_f1QSLA8F5-15" target="hc1PMB7uW3_f1QSLA8F5-22" edge="1">
                    <mxGeometry relative="1" as="geometry">
                        <mxPoint x="-560" y="-400" as="targetPoint"/>
                    </mxGeometry>
                </mxCell>
                <mxCell id="hc1PMB7uW3_f1QSLA8F5-15" value="biomass" style="whiteSpace=wrap;html=1;rounded=1;fillColor=#E6E6E6;fontSize=15;" parent="hc1PMB7uW3_f1QSLA8F5-1" vertex="1">
                    <mxGeometry x="-500" y="-550" width="120" height="60" as="geometry"/>
                </mxCell>
                <mxCell id="hc1PMB7uW3_f1QSLA8F5-16" style="edgeStyle=orthogonalEdgeStyle;rounded=0;orthogonalLoop=1;jettySize=auto;html=1;exitX=0.625;exitY=1;exitDx=0;exitDy=0;exitPerimeter=0;fontSize=15;" parent="hc1PMB7uW3_f1QSLA8F5-1" source="hc1PMB7uW3_f1QSLA8F5-17" target="hc1PMB7uW3_f1QSLA8F5-22" edge="1">
                    <mxGeometry relative="1" as="geometry"/>
                </mxCell>
                <mxCell id="hc1PMB7uW3_f1QSLA8F5-17" value="tracking" style="whiteSpace=wrap;html=1;rounded=1;fillColor=#E6E6E6;fontSize=15;" parent="hc1PMB7uW3_f1QSLA8F5-1" vertex="1">
                    <mxGeometry x="-230" y="-550" width="120" height="60" as="geometry"/>
                </mxCell>
                <mxCell id="hc1PMB7uW3_f1QSLA8F5-18" style="edgeStyle=orthogonalEdgeStyle;rounded=0;orthogonalLoop=1;jettySize=auto;html=1;entryX=0.5;entryY=0;entryDx=0;entryDy=0;exitX=0.5;exitY=1;exitDx=0;exitDy=0;fontSize=15;" parent="hc1PMB7uW3_f1QSLA8F5-1" source="hc1PMB7uW3_f1QSLA8F5-19" target="hc1PMB7uW3_f1QSLA8F5-22" edge="1">
                    <mxGeometry relative="1" as="geometry"/>
                </mxCell>
                <mxCell id="hc1PMB7uW3_f1QSLA8F5-19" value="habitat" style="whiteSpace=wrap;html=1;rounded=1;fillColor=#E6E6E6;fontSize=15;" parent="hc1PMB7uW3_f1QSLA8F5-1" vertex="1">
                    <mxGeometry x="-360" y="-550" width="120" height="60" as="geometry"/>
                </mxCell>
                <mxCell id="hc1PMB7uW3_f1QSLA8F5-20" style="edgeStyle=orthogonalEdgeStyle;rounded=0;orthogonalLoop=1;jettySize=auto;html=1;fontSize=15;" parent="hc1PMB7uW3_f1QSLA8F5-1" source="hc1PMB7uW3_f1QSLA8F5-22" target="hc1PMB7uW3_f1QSLA8F5-26" edge="1">
                    <mxGeometry relative="1" as="geometry"/>
                </mxCell>
                <mxCell id="hc1PMB7uW3_f1QSLA8F5-21" style="edgeStyle=orthogonalEdgeStyle;rounded=0;orthogonalLoop=1;jettySize=auto;html=1;fontSize=15;" parent="hc1PMB7uW3_f1QSLA8F5-1" source="hc1PMB7uW3_f1QSLA8F5-22" target="hc1PMB7uW3_f1QSLA8F5-28" edge="1">
                    <mxGeometry relative="1" as="geometry"/>
                </mxCell>
                <mxCell id="hc1PMB7uW3_f1QSLA8F5-22" value="Do you have event level information (e.g. sample, station, cruise, study, etc.)?" style="whiteSpace=wrap;html=1;rounded=0;fontStyle=1;fillColor=#CCE5FF;fontSize=15;" parent="hc1PMB7uW3_f1QSLA8F5-1" vertex="1">
                    <mxGeometry x="-629.5" y="-393" width="220" height="90" as="geometry"/>
                </mxCell>
                <mxCell id="hc1PMB7uW3_f1QSLA8F5-23" value="" style="edgeStyle=orthogonalEdgeStyle;rounded=0;orthogonalLoop=1;jettySize=auto;html=1;entryX=0.5;entryY=0;entryDx=0;entryDy=0;exitX=0.5;exitY=1;exitDx=0;exitDy=0;fontSize=15;" parent="hc1PMB7uW3_f1QSLA8F5-1" source="hc1PMB7uW3_f1QSLA8F5-10" target="hc1PMB7uW3_f1QSLA8F5-22" edge="1">
                    <mxGeometry relative="1" as="geometry">
                        <mxPoint x="-540" y="-520" as="sourcePoint"/>
                        <mxPoint x="-420" y="-370" as="targetPoint"/>
                    </mxGeometry>
                </mxCell>
                <mxCell id="hc1PMB7uW3_f1QSLA8F5-24" value="abundance, percent cover" style="whiteSpace=wrap;html=1;rounded=1;fillColor=#E6E6E6;fontSize=15;" parent="hc1PMB7uW3_f1QSLA8F5-1" vertex="1">
                    <mxGeometry x="-630" y="-550" width="120" height="60" as="geometry"/>
                </mxCell>
                <mxCell id="hc1PMB7uW3_f1QSLA8F5-25" value="" style="edgeStyle=orthogonalEdgeStyle;rounded=0;orthogonalLoop=1;jettySize=auto;html=1;fontSize=15;" parent="hc1PMB7uW3_f1QSLA8F5-1" source="hc1PMB7uW3_f1QSLA8F5-26" target="hc1PMB7uW3_f1QSLA8F5-34" edge="1">
                    <mxGeometry relative="1" as="geometry"/>
                </mxCell>
                <mxCell id="hc1PMB7uW3_f1QSLA8F5-26" value="Yes" style="ellipse;whiteSpace=wrap;html=1;fillColor=#CCFFCC;fontSize=15;" parent="hc1PMB7uW3_f1QSLA8F5-1" vertex="1">
                    <mxGeometry x="-615" y="-250" width="60" height="60" as="geometry"/>
                </mxCell>
                <mxCell id="hc1PMB7uW3_f1QSLA8F5-27" value="" style="edgeStyle=orthogonalEdgeStyle;rounded=0;orthogonalLoop=1;jettySize=auto;html=1;fontSize=15;" parent="hc1PMB7uW3_f1QSLA8F5-1" source="hc1PMB7uW3_f1QSLA8F5-28" target="hc1PMB7uW3_f1QSLA8F5-36" edge="1">
                    <mxGeometry relative="1" as="geometry"/>
                </mxCell>
                <mxCell id="hc1PMB7uW3_f1QSLA8F5-28" value="No" style="ellipse;whiteSpace=wrap;html=1;fillColor=#FFCCCC;fontSize=15;" parent="hc1PMB7uW3_f1QSLA8F5-1" vertex="1">
                    <mxGeometry x="-476" y="-250" width="60" height="60" as="geometry"/>
                </mxCell>
                <mxCell id="hc1PMB7uW3_f1QSLA8F5-29" style="edgeStyle=orthogonalEdgeStyle;rounded=0;orthogonalLoop=1;jettySize=auto;html=1;fontSize=15;" parent="hc1PMB7uW3_f1QSLA8F5-1" source="hc1PMB7uW3_f1QSLA8F5-31" target="hc1PMB7uW3_f1QSLA8F5-38" edge="1">
                    <mxGeometry relative="1" as="geometry"/>
                </mxCell>
                <mxCell id="hc1PMB7uW3_f1QSLA8F5-30" style="edgeStyle=orthogonalEdgeStyle;rounded=0;orthogonalLoop=1;jettySize=auto;html=1;fontSize=15;" parent="hc1PMB7uW3_f1QSLA8F5-1" source="hc1PMB7uW3_f1QSLA8F5-31" target="hc1PMB7uW3_f1QSLA8F5-40" edge="1">
                    <mxGeometry relative="1" as="geometry"/>
                </mxCell>
                <mxCell id="hc1PMB7uW3_f1QSLA8F5-31" value="&lt;b style=&quot;font-size: 15px;&quot;&gt;Have (or will) you collect any data associated with samples or sampling? (e.g. temperature, length, etc.)&lt;/b&gt;" style="whiteSpace=wrap;html=1;rounded=0;fillColor=#CCE5FF;fontSize=15;" parent="hc1PMB7uW3_f1QSLA8F5-1" vertex="1">
                    <mxGeometry x="-983" y="-20" width="190" height="120" as="geometry"/>
                </mxCell>
                <mxCell id="hc1PMB7uW3_f1QSLA8F5-33" style="edgeStyle=orthogonalEdgeStyle;rounded=0;orthogonalLoop=1;jettySize=auto;html=1;fontSize=15;" parent="hc1PMB7uW3_f1QSLA8F5-1" source="hc1PMB7uW3_f1QSLA8F5-34" target="hc1PMB7uW3_f1QSLA8F5-31" edge="1">
                    <mxGeometry relative="1" as="geometry"/>
                </mxCell>
                <mxCell id="hc1PMB7uW3_f1QSLA8F5-34" value="Event core" style="rhombus;whiteSpace=wrap;html=1;fillColor=#E5CCFF;fontSize=15;" parent="hc1PMB7uW3_f1QSLA8F5-1" vertex="1">
                    <mxGeometry x="-943" y="-160" width="109" height="110" as="geometry"/>
                </mxCell>
                <mxCell id="hc1PMB7uW3_f1QSLA8F5-35" style="edgeStyle=orthogonalEdgeStyle;rounded=0;orthogonalLoop=1;jettySize=auto;html=1;exitX=0.5;exitY=1;exitDx=0;exitDy=0;fontSize=15;" parent="hc1PMB7uW3_f1QSLA8F5-1" source="hc1PMB7uW3_f1QSLA8F5-36" target="hc1PMB7uW3_f1QSLA8F5-67" edge="1">
                    <mxGeometry relative="1" as="geometry"/>
                </mxCell>
                <mxCell id="hc1PMB7uW3_f1QSLA8F5-36" value="Occurrence Core" style="rhombus;whiteSpace=wrap;html=1;fillColor=#FFFFCC;fontSize=15;" parent="hc1PMB7uW3_f1QSLA8F5-1" vertex="1">
                    <mxGeometry x="-500.5" y="-160" width="109" height="110" as="geometry"/>
                </mxCell>
                <mxCell id="hc1PMB7uW3_f1QSLA8F5-37" value="" style="edgeStyle=orthogonalEdgeStyle;rounded=0;orthogonalLoop=1;jettySize=auto;html=1;entryX=0.5;entryY=0;entryDx=0;entryDy=0;entryPerimeter=0;fontSize=15;" parent="hc1PMB7uW3_f1QSLA8F5-1" source="hc1PMB7uW3_f1QSLA8F5-38" target="hc1PMB7uW3_f1QSLA8F5-61" edge="1">
                    <mxGeometry relative="1" as="geometry"/>
                </mxCell>
                <mxCell id="hc1PMB7uW3_f1QSLA8F5-38" value="Yes" style="ellipse;whiteSpace=wrap;html=1;fillColor=#CCFFCC;fontSize=15;" parent="hc1PMB7uW3_f1QSLA8F5-1" vertex="1">
                    <mxGeometry x="-1031" y="158.5" width="60" height="60" as="geometry"/>
                </mxCell>
                <mxCell id="hc1PMB7uW3_f1QSLA8F5-39" value="" style="edgeStyle=orthogonalEdgeStyle;rounded=0;orthogonalLoop=1;jettySize=auto;html=1;fontSize=15;" parent="hc1PMB7uW3_f1QSLA8F5-1" source="hc1PMB7uW3_f1QSLA8F5-40" target="hc1PMB7uW3_f1QSLA8F5-42" edge="1">
                    <mxGeometry relative="1" as="geometry"/>
                </mxCell>
                <mxCell id="hc1PMB7uW3_f1QSLA8F5-40" value="No" style="ellipse;whiteSpace=wrap;html=1;fillColor=#FFCCCC;fontSize=15;" parent="hc1PMB7uW3_f1QSLA8F5-1" vertex="1">
                    <mxGeometry x="-815" y="158.5" width="60" height="60" as="geometry"/>
                </mxCell>
                <mxCell id="hc1PMB7uW3_f1QSLA8F5-41" value="Event core" style="rhombus;whiteSpace=wrap;html=1;fillColor=#E5CCFF;fontSize=15;" parent="hc1PMB7uW3_f1QSLA8F5-1" vertex="1">
                    <mxGeometry x="-1128" y="249.5" width="109" height="110" as="geometry"/>
                </mxCell>
                <mxCell id="hc1PMB7uW3_f1QSLA8F5-42" value="Event core &lt;br style=&quot;font-size: 15px;&quot;&gt;only" style="rhombus;whiteSpace=wrap;html=1;fillColor=#E5CCFF;fontSize=15;" parent="hc1PMB7uW3_f1QSLA8F5-1" vertex="1">
                    <mxGeometry x="-839.5" y="249.5" width="109" height="110" as="geometry"/>
                </mxCell>
                <mxCell id="hc1PMB7uW3_f1QSLA8F5-43" style="edgeStyle=orthogonalEdgeStyle;rounded=0;orthogonalLoop=1;jettySize=auto;html=1;exitX=0.5;exitY=1;exitDx=0;exitDy=0;exitPerimeter=0;fontSize=15;" parent="hc1PMB7uW3_f1QSLA8F5-1" source="hc1PMB7uW3_f1QSLA8F5-57" target="hc1PMB7uW3_f1QSLA8F5-47" edge="1">
                    <mxGeometry relative="1" as="geometry">
                        <mxPoint x="164.5" y="44" as="sourcePoint"/>
                    </mxGeometry>
                </mxCell>
                <mxCell id="hc1PMB7uW3_f1QSLA8F5-44" value="Occurrence Core" style="rhombus;whiteSpace=wrap;html=1;rounded=0;fillColor=#FFFFCC;fontSize=15;" parent="hc1PMB7uW3_f1QSLA8F5-1" vertex="1">
                    <mxGeometry x="-30" y="-183.5" width="109" height="110" as="geometry"/>
                </mxCell>
                <mxCell id="hc1PMB7uW3_f1QSLA8F5-45" style="edgeStyle=orthogonalEdgeStyle;rounded=0;orthogonalLoop=1;jettySize=auto;html=1;" parent="hc1PMB7uW3_f1QSLA8F5-1" source="hc1PMB7uW3_f1QSLA8F5-47" target="hc1PMB7uW3_f1QSLA8F5-49" edge="1">
                    <mxGeometry relative="1" as="geometry"/>
                </mxCell>
                <mxCell id="hc1PMB7uW3_f1QSLA8F5-46" style="edgeStyle=orthogonalEdgeStyle;rounded=0;orthogonalLoop=1;jettySize=auto;html=1;" parent="hc1PMB7uW3_f1QSLA8F5-1" source="hc1PMB7uW3_f1QSLA8F5-47" target="hc1PMB7uW3_f1QSLA8F5-51" edge="1">
                    <mxGeometry relative="1" as="geometry"/>
                </mxCell>
                <mxCell id="hc1PMB7uW3_f1QSLA8F5-47" value="&lt;b style=&quot;font-size: 15px;&quot;&gt;Have (or will) you collect any data associated with samples or sampling? (e.g. temperature, length, etc.)&lt;/b&gt;" style="whiteSpace=wrap;html=1;rounded=0;fillColor=#CCE5FF;fontSize=15;" parent="hc1PMB7uW3_f1QSLA8F5-1" vertex="1">
                    <mxGeometry x="2.5" y="-33.5" width="190" height="120" as="geometry"/>
                </mxCell>
                <mxCell id="hc1PMB7uW3_f1QSLA8F5-48" style="edgeStyle=orthogonalEdgeStyle;rounded=0;orthogonalLoop=1;jettySize=auto;html=1;exitX=0.5;exitY=1;exitDx=0;exitDy=0;entryX=0.1;entryY=0.5;entryDx=0;entryDy=0;entryPerimeter=0;fontSize=15;" parent="hc1PMB7uW3_f1QSLA8F5-1" source="hc1PMB7uW3_f1QSLA8F5-49" target="hc1PMB7uW3_f1QSLA8F5-64" edge="1">
                    <mxGeometry relative="1" as="geometry"/>
                </mxCell>
                <mxCell id="hc1PMB7uW3_f1QSLA8F5-49" value="Yes" style="ellipse;whiteSpace=wrap;html=1;fillColor=#CCFFCC;fontSize=15;" parent="hc1PMB7uW3_f1QSLA8F5-1" vertex="1">
                    <mxGeometry x="-99" y="158.5" width="60" height="60" as="geometry"/>
                </mxCell>
                <mxCell id="hc1PMB7uW3_f1QSLA8F5-50" value="" style="edgeStyle=orthogonalEdgeStyle;rounded=0;orthogonalLoop=1;jettySize=auto;html=1;entryX=0.5;entryY=0;entryDx=0;entryDy=0;entryPerimeter=0;fontSize=15;" parent="hc1PMB7uW3_f1QSLA8F5-1" source="hc1PMB7uW3_f1QSLA8F5-51" target="hc1PMB7uW3_f1QSLA8F5-62" edge="1">
                    <mxGeometry relative="1" as="geometry"/>
                </mxCell>
                <mxCell id="hc1PMB7uW3_f1QSLA8F5-51" value="No" style="ellipse;whiteSpace=wrap;html=1;fillColor=#FFCCCC;fontSize=15;" parent="hc1PMB7uW3_f1QSLA8F5-1" vertex="1">
                    <mxGeometry x="248" y="158.5" width="60" height="60" as="geometry"/>
                </mxCell>
                <mxCell id="hc1PMB7uW3_f1QSLA8F5-52" value="Occurrence &lt;br style=&quot;font-size: 15px;&quot;&gt;core" style="rhombus;whiteSpace=wrap;html=1;fillColor=#FFFFCC;fontSize=15;" parent="hc1PMB7uW3_f1QSLA8F5-1" vertex="1">
                    <mxGeometry x="-262" y="249.5" width="109" height="110" as="geometry"/>
                </mxCell>
                <mxCell id="hc1PMB7uW3_f1QSLA8F5-53" value="Occurrence &lt;br style=&quot;font-size: 15px;&quot;&gt;core" style="rhombus;whiteSpace=wrap;html=1;fillColor=#FFFFCC;fontSize=15;" parent="hc1PMB7uW3_f1QSLA8F5-1" vertex="1">
                    <mxGeometry x="150" y="249.5" width="109" height="110" as="geometry"/>
                </mxCell>
                <mxCell id="hc1PMB7uW3_f1QSLA8F5-54" value="DNA&lt;br style=&quot;font-size: 15px;&quot;&gt;derived data&lt;br&gt;extension" style="rhombus;whiteSpace=wrap;html=1;rounded=0;fillColor=#FFB570;fontSize=15;" parent="hc1PMB7uW3_f1QSLA8F5-1" vertex="1">
                    <mxGeometry x="116" y="-183.5" width="109" height="110" as="geometry"/>
                </mxCell>
                <mxCell id="hc1PMB7uW3_f1QSLA8F5-55" style="edgeStyle=orthogonalEdgeStyle;rounded=0;orthogonalLoop=1;jettySize=auto;html=1;fontSize=15;" parent="hc1PMB7uW3_f1QSLA8F5-1" source="hc1PMB7uW3_f1QSLA8F5-56" target="hc1PMB7uW3_f1QSLA8F5-9" edge="1">
                    <mxGeometry relative="1" as="geometry"/>
                </mxCell>
                <mxCell id="hc1PMB7uW3_f1QSLA8F5-56" value="Start" style="rhombus;whiteSpace=wrap;html=1;fillColor=#97D077;fontSize=18;" parent="hc1PMB7uW3_f1QSLA8F5-1" vertex="1">
                    <mxGeometry x="-410" y="-830" width="90" height="100" as="geometry"/>
                </mxCell>
                <mxCell id="hc1PMB7uW3_f1QSLA8F5-57" value="" style="shape=cross;whiteSpace=wrap;html=1;fontSize=15;" parent="hc1PMB7uW3_f1QSLA8F5-1" vertex="1">
                    <mxGeometry x="82.5" y="-143.5" width="30" height="30" as="geometry"/>
                </mxCell>
                <mxCell id="hc1PMB7uW3_f1QSLA8F5-58" value="eMoF&lt;br style=&quot;font-size: 15px;&quot;&gt;extension" style="rhombus;whiteSpace=wrap;html=1;rounded=0;fillColor=#FFD966;fontSize=15;" parent="hc1PMB7uW3_f1QSLA8F5-1" vertex="1">
                    <mxGeometry x="-983" y="249.5" width="109" height="110" as="geometry"/>
                </mxCell>
                <mxCell id="hc1PMB7uW3_f1QSLA8F5-59" value="eMoF&lt;br style=&quot;font-size: 15px;&quot;&gt;extension" style="rhombus;whiteSpace=wrap;html=1;rounded=0;fillColor=#FFD966;fontSize=15;" parent="hc1PMB7uW3_f1QSLA8F5-1" vertex="1">
                    <mxGeometry x="26.5" y="249.5" width="109" height="110" as="geometry"/>
                </mxCell>
                <mxCell id="hc1PMB7uW3_f1QSLA8F5-60" value="" style="shape=cross;whiteSpace=wrap;html=1;fontSize=15;" parent="hc1PMB7uW3_f1QSLA8F5-1" vertex="1">
                    <mxGeometry x="-150" y="289.5" width="30" height="30" as="geometry"/>
                </mxCell>
                <mxCell id="hc1PMB7uW3_f1QSLA8F5-61" value="" style="shape=cross;whiteSpace=wrap;html=1;fontSize=15;" parent="hc1PMB7uW3_f1QSLA8F5-1" vertex="1">
                    <mxGeometry x="-1016" y="289.5" width="30" height="30" as="geometry"/>
                </mxCell>
                <mxCell id="hc1PMB7uW3_f1QSLA8F5-62" value="" style="shape=cross;whiteSpace=wrap;html=1;fontSize=15;" parent="hc1PMB7uW3_f1QSLA8F5-1" vertex="1">
                    <mxGeometry x="262" y="289.5" width="30" height="30" as="geometry"/>
                </mxCell>
                <mxCell id="hc1PMB7uW3_f1QSLA8F5-63" value="" style="shape=cross;whiteSpace=wrap;html=1;fontSize=15;" parent="hc1PMB7uW3_f1QSLA8F5-1" vertex="1">
                    <mxGeometry x="-6" y="289.5" width="30" height="30" as="geometry"/>
                </mxCell>
                <mxCell id="hc1PMB7uW3_f1QSLA8F5-64" value="" style="shape=curlyBracket;whiteSpace=wrap;html=1;rounded=1;labelPosition=left;verticalLabelPosition=middle;align=right;verticalAlign=middle;rotation=90;fontSize=15;" parent="hc1PMB7uW3_f1QSLA8F5-1" vertex="1">
                    <mxGeometry x="-79" y="86.5" width="20" height="310" as="geometry"/>
                </mxCell>
                <mxCell id="hc1PMB7uW3_f1QSLA8F5-65" style="edgeStyle=orthogonalEdgeStyle;rounded=0;orthogonalLoop=1;jettySize=auto;html=1;entryX=0.5;entryY=0;entryDx=0;entryDy=0;fontSize=15;" parent="hc1PMB7uW3_f1QSLA8F5-1" source="hc1PMB7uW3_f1QSLA8F5-67" target="hc1PMB7uW3_f1QSLA8F5-69" edge="1">
                    <mxGeometry relative="1" as="geometry"/>
                </mxCell>
                <mxCell id="hc1PMB7uW3_f1QSLA8F5-66" style="edgeStyle=orthogonalEdgeStyle;rounded=0;orthogonalLoop=1;jettySize=auto;html=1;fontSize=15;" parent="hc1PMB7uW3_f1QSLA8F5-1" source="hc1PMB7uW3_f1QSLA8F5-67" target="hc1PMB7uW3_f1QSLA8F5-71" edge="1">
                    <mxGeometry relative="1" as="geometry"/>
                </mxCell>
                <mxCell id="hc1PMB7uW3_f1QSLA8F5-67" value="&lt;b style=&quot;font-size: 15px;&quot;&gt;Have (or will) you collect any data associated with samples or sampling? (e.g. temperature, length, etc.)&lt;/b&gt;" style="whiteSpace=wrap;html=1;rounded=0;fillColor=#CCE5FF;fontSize=15;" parent="hc1PMB7uW3_f1QSLA8F5-1" vertex="1">
                    <mxGeometry x="-541" y="-20" width="190" height="120" as="geometry"/>
                </mxCell>
                <mxCell id="hc1PMB7uW3_f1QSLA8F5-68" value="" style="edgeStyle=orthogonalEdgeStyle;rounded=0;orthogonalLoop=1;jettySize=auto;html=1;entryX=0.5;entryY=0;entryDx=0;entryDy=0;entryPerimeter=0;fontSize=15;" parent="hc1PMB7uW3_f1QSLA8F5-1" source="hc1PMB7uW3_f1QSLA8F5-69" target="hc1PMB7uW3_f1QSLA8F5-75" edge="1">
                    <mxGeometry relative="1" as="geometry"/>
                </mxCell>
                <mxCell id="hc1PMB7uW3_f1QSLA8F5-69" value="Yes" style="ellipse;whiteSpace=wrap;html=1;fillColor=#CCFFCC;fontSize=15;" parent="hc1PMB7uW3_f1QSLA8F5-1" vertex="1">
                    <mxGeometry x="-601" y="158.5" width="60" height="60" as="geometry"/>
                </mxCell>
                <mxCell id="hc1PMB7uW3_f1QSLA8F5-70" value="" style="edgeStyle=orthogonalEdgeStyle;rounded=0;orthogonalLoop=1;jettySize=auto;html=1;fontSize=15;" parent="hc1PMB7uW3_f1QSLA8F5-1" source="hc1PMB7uW3_f1QSLA8F5-71" target="hc1PMB7uW3_f1QSLA8F5-73" edge="1">
                    <mxGeometry relative="1" as="geometry"/>
                </mxCell>
                <mxCell id="hc1PMB7uW3_f1QSLA8F5-71" value="No" style="ellipse;whiteSpace=wrap;html=1;fillColor=#FFCCCC;fontSize=15;" parent="hc1PMB7uW3_f1QSLA8F5-1" vertex="1">
                    <mxGeometry x="-385" y="158.5" width="60" height="60" as="geometry"/>
                </mxCell>
                <mxCell id="hc1PMB7uW3_f1QSLA8F5-72" value="Occurrence&lt;br style=&quot;font-size: 15px;&quot;&gt;core" style="rhombus;whiteSpace=wrap;html=1;fillColor=#FFFFCC;fontSize=15;" parent="hc1PMB7uW3_f1QSLA8F5-1" vertex="1">
                    <mxGeometry x="-698" y="249.5" width="109" height="110" as="geometry"/>
                </mxCell>
                <mxCell id="hc1PMB7uW3_f1QSLA8F5-73" value="Occurrence&lt;br style=&quot;border-color: var(--border-color); font-size: 15px;&quot;&gt;core only" style="rhombus;whiteSpace=wrap;html=1;fillColor=#FFFFCC;fontSize=15;" parent="hc1PMB7uW3_f1QSLA8F5-1" vertex="1">
                    <mxGeometry x="-409.5" y="249.5" width="109" height="110" as="geometry"/>
                </mxCell>
                <mxCell id="hc1PMB7uW3_f1QSLA8F5-74" value="eMoF&lt;br style=&quot;font-size: 15px;&quot;&gt;extension" style="rhombus;whiteSpace=wrap;html=1;rounded=0;fillColor=#FFD966;fontSize=15;" parent="hc1PMB7uW3_f1QSLA8F5-1" vertex="1">
                    <mxGeometry x="-552" y="249.5" width="109" height="110" as="geometry"/>
                </mxCell>
                <mxCell id="hc1PMB7uW3_f1QSLA8F5-75" value="" style="shape=cross;whiteSpace=wrap;html=1;fontSize=15;" parent="hc1PMB7uW3_f1QSLA8F5-1" vertex="1">
                    <mxGeometry x="-586" y="289.5" width="30" height="30" as="geometry"/>
                </mxCell>
                <mxCell id="hc1PMB7uW3_f1QSLA8F5-76" value="DNA&lt;br style=&quot;font-size: 15px;&quot;&gt;derived data&lt;br&gt;extension" style="rhombus;whiteSpace=wrap;html=1;rounded=0;fillColor=#FFB570;fontSize=15;" parent="hc1PMB7uW3_f1QSLA8F5-1" vertex="1">
                    <mxGeometry x="-118" y="249.5" width="109" height="110" as="geometry"/>
                </mxCell>
                <mxCell id="hc1PMB7uW3_f1QSLA8F5-77" value="DNA&lt;br style=&quot;font-size: 15px;&quot;&gt;derived data&lt;br&gt;extension" style="rhombus;whiteSpace=wrap;html=1;rounded=0;fillColor=#FFB570;fontSize=15;" parent="hc1PMB7uW3_f1QSLA8F5-1" vertex="1">
                    <mxGeometry x="295" y="249.5" width="109" height="110" as="geometry"/>
                </mxCell>
            </root>
        </mxGraphModel>
    </diagram>
</mxfile>